<svg width="9" height="10" viewBox="0 0 9 10" fill="none" xmlns="http://www.w3.org/2000/svg">
<path d="M4.26367 0.902344H4.5957C4.90169 0.902344 5.08073 1.01302 5.13281 1.23438C5.13932 1.26042 5.14258 1.78125 5.14258 2.79688C5.14258 3.8125 5.15234 4.33984 5.17188 4.37891C5.19792 4.41797 5.67643 4.4375 6.60742 4.4375C7.53841 4.4375 8.08203 4.45378 8.23828 4.48633C8.49219 4.53841 8.61914 4.69792 8.61914 4.96484C8.61914 5.41406 8.53451 5.68424 8.36523 5.77539C8.20247 5.86003 7.63607 5.90234 6.66602 5.90234C5.70247 5.90234 5.18164 5.94141 5.10352 6.01953C5.0319 6.09115 4.99609 6.5957 4.99609 7.5332C4.99609 8.4707 4.95052 9.04362 4.85938 9.25195C4.77474 9.45378 4.56966 9.55469 4.24414 9.55469H4.06836C3.75586 9.55469 3.57031 9.45052 3.51172 9.24219C3.50521 9.22266 3.50195 8.68555 3.50195 7.63086C3.50195 6.57617 3.47591 6.03255 3.42383 6C3.37174 5.96094 2.87695 5.94141 1.93945 5.94141C1.00846 5.94141 0.458333 5.91536 0.289062 5.86328C0.126302 5.80469 0.0449219 5.5931 0.0449219 5.22852C0.0449219 4.86393 0.142578 4.64909 0.337891 4.58398C0.539714 4.51888 1.10286 4.48633 2.02734 4.48633C2.95182 4.48633 3.44987 4.45378 3.52148 4.38867C3.5931 4.32357 3.62891 3.89714 3.62891 3.10938L3.64844 2.43555C3.65495 2.32487 3.6582 2.13281 3.6582 1.85938C3.6582 1.22135 3.86003 0.902344 4.26367 0.902344Z" fill="black"/>
</svg>
