<svg width="18" height="19" viewBox="0 0 18 19" fill="none" xmlns="http://www.w3.org/2000/svg">
<path fill-rule="evenodd" clip-rule="evenodd" d="M17.9297 16.3672C17.9297 17.3307 17.0898 17.8125 15.4102 17.8125C14.4596 17.8125 13.8216 17.5846 13.4961 17.1289C13.3398 16.9076 13.2617 16.3867 13.2617 15.5664L13.2031 14.3164C13.112 12.9492 13.0664 11.5755 13.0664 10.1953C13.0664 7.31205 12.8229 5.34797 12.3359 4.30309C12.2419 4.66127 12.179 5.07246 12.1474 5.53666C12.1011 6.13244 12.1084 6.99918 12.1694 8.13687C12.2304 9.27456 12.3245 9.99647 12.4517 10.3026C12.474 10.3536 12.5742 10.521 12.7525 10.8048C12.931 11.0951 13.0259 11.3443 13.037 11.5524C13.0482 11.7604 12.9552 12.0327 12.7581 12.3692C12.5544 12.7061 12.4211 12.9545 12.3579 13.1144C11.5796 15.0142 11.1721 15.9879 11.1355 16.0355C10.7713 16.5083 10.3219 16.8554 9.78711 17.0769C9.70839 17.1794 9.59837 17.2768 9.45703 17.3691C9.14453 17.571 8.7181 17.6719 8.17773 17.6719C7.16862 17.6719 6.45898 17.2975 6.04883 16.5488C5.79492 16.0801 5.66797 14.9831 5.66797 13.2578C5.66797 11.5326 5.63867 10.5299 5.58008 10.25C5.52148 9.97005 5.35872 9.69661 5.0918 9.42969C5.06837 9.40626 5.04597 9.3833 5.02459 9.36083C4.85195 10.9453 4.76562 12.8706 4.76562 15.1367C4.76562 16.2174 4.55729 16.9792 4.14062 17.4219C3.73698 17.8646 3.21615 18.0859 2.57812 18.0859H2.1875C0.729167 18.0859 0 17.5065 0 16.3477V15.8789C0 15.7357 0.078125 15.4232 0.234375 14.9414L0.546875 14.043C0.859375 12.9883 1.01562 10.7292 1.01562 7.26562L1.11328 1.46484C1.11328 0.722656 1.51693 0.351562 2.32422 0.351562C3.13151 0.351562 3.92578 0.61849 4.70703 1.15234C5.5013 1.6862 6.0026 1.95312 6.21094 1.95312C6.43229 1.95312 6.81641 1.80339 7.36328 1.50391C9.19922 0.501302 10.6706 0 11.7773 0H12.2852C14.2773 0 15.6771 0.898438 16.4844 2.69531C16.875 3.54167 17.0703 5.36458 17.0703 8.16406V8.30078C17.0703 8.53516 17.0638 8.76953 17.0508 9.00391V10V10.7227V11.25C17.0508 12.2526 17.0833 12.9362 17.1484 13.3008C17.2396 13.7956 17.3893 14.3099 17.5977 14.8438C17.819 15.4297 17.9297 15.9375 17.9297 16.3672ZM5.16528 8.26914C5.29603 8.13394 5.45382 7.97391 5.63867 7.78906C5.77539 7.65234 5.91211 7.34961 6.04883 6.88086C6.19206 6.41211 6.29297 6.10286 6.35156 5.95312C6.54688 5.48438 6.80404 5.25 7.12305 5.25H7.2793C7.55924 5.25 7.75781 5.35742 7.875 5.57227C7.92057 5.6569 7.98893 5.96289 8.08008 6.49023C8.17773 7.01107 8.28841 7.34635 8.41211 7.49609C8.53581 7.64583 8.84505 7.81185 9.33984 7.99414C9.64519 8.10121 9.85754 8.21311 9.9769 8.32984C10.0816 7.45463 10.1035 6.45033 10.0428 5.31695L9.76916 3.67885C9.74728 3.27059 9.83998 2.9345 10.0473 2.67057C9.93711 2.66102 9.8237 2.65625 9.70703 2.65625C8.89974 2.65625 8.15104 2.89714 7.46094 3.37891C6.78385 3.86068 6.26302 4.53125 5.89844 5.39062C5.5918 6.10435 5.34742 7.06385 5.16528 8.26914ZM9.86946 9.03503C9.72628 9.14346 9.51393 9.24246 9.23242 9.33203C8.66602 9.50781 8.30143 9.79102 8.13867 10.1816C7.81966 10.9694 7.66016 12.252 7.66016 14.0293C7.66016 14.8626 7.80339 15.429 8.08984 15.7285C8.1019 15.741 8.11477 15.7533 8.12848 15.7652C8.38419 15.7784 8.57669 15.7815 8.70598 15.7746C9.12855 15.7519 9.46335 15.5514 9.71038 15.1731C9.95126 14.8016 10.0592 14.3818 10.0341 13.9137C10.009 13.4456 9.89643 13.1094 9.6964 12.905C9.63441 12.8431 9.3494 12.6954 8.84138 12.4618C8.32721 12.2351 8.06316 11.9917 8.04922 11.7317C8.04155 11.5886 8.30925 11.3526 8.85232 11.0236C9.23774 10.7943 9.51043 10.4081 9.67039 9.86488C9.74783 9.60556 9.81419 9.32894 9.86946 9.03503Z" fill="white"/>
</svg>
