<svg width="13" height="10" viewBox="0 0 13 10" fill="none" xmlns="http://www.w3.org/2000/svg">
<path fill-rule="evenodd" clip-rule="evenodd" d="M0 1C0 0.447715 0.447716 0 1 0H12C12.5523 0 13 0.447715 13 1C13 1.55228 12.5523 2 12 2H1C0.447716 2 0 1.55228 0 1ZM0 9C0 8.44772 0.447716 8 1 8H12C12.5523 8 13 8.44772 13 9C13 9.55228 12.5523 10 12 10H1C0.447716 10 0 9.55228 0 9ZM1 4C0.447716 4 0 4.44772 0 5C0 5.55228 0.447716 6 1 6H12C12.5523 6 13 5.55228 13 5C13 4.44772 12.5523 4 12 4H1Z" fill="white"/>
</svg>
